<svg width="current" height="current" viewBox="0 0 165 35" fill="none" xmlns="http://www.w3.org/2000/svg">
<path d="M5.696 34.736C4.928 34.736 4.256 34.616 3.68 34.376C3.104 34.136 2.624 33.8 2.24 33.368C1.88 32.96 1.604 32.492 1.412 31.964C1.244 31.412 1.16 30.824 1.16 30.2V30.092C1.16 28.82 1.52 27.8 2.24 27.032C2.96 26.264 4.112 25.88 5.696 25.88H24.956V25.232C24.956 24.848 24.704 24.656 24.2 24.656H3.572C2.9 24.656 2.384 24.452 2.024 24.044C1.688 23.636 1.52 23.192 1.52 22.712C1.52 22.232 1.676 21.788 1.988 21.38C2.324 20.948 2.852 20.732 3.572 20.732H28.34C29.876 20.732 30.932 21.008 31.508 21.56C32.084 22.112 32.372 22.94 32.372 24.044V29.516H9.584C9.32 29.516 9.14 29.576 9.044 29.696C8.948 29.792 8.9 29.936 8.9 30.128C8.9 30.32 8.948 30.476 9.044 30.596C9.14 30.716 9.32 30.776 9.584 30.776H31.436C32.132 30.776 32.624 30.98 32.912 31.388C33.224 31.796 33.38 32.252 33.38 32.756C33.38 33.188 33.236 33.62 32.948 34.052C32.66 34.508 32.156 34.736 31.436 34.736H5.696ZM29.564 1.436C30.596 1.436 31.328 1.664 31.76 2.12C32.192 2.552 32.408 3.116 32.408 3.812C32.408 4.508 32.18 5.084 31.724 5.54C31.292 5.972 30.572 6.188 29.564 6.188H20.888C20.816 6.404 20.732 6.608 20.636 6.8C20.564 6.992 20.468 7.184 20.348 7.376C20.924 7.328 21.5 7.304 22.076 7.304C22.652 7.28 23.24 7.28 23.84 7.304C25.04 7.352 26.156 7.484 27.188 7.7C28.22 7.916 29.144 8.264 29.96 8.744C30.8 9.2 31.52 9.812 32.12 10.58C32.744 11.324 33.236 12.248 33.596 13.352H26.36C26.072 12.992 25.7 12.668 25.244 12.38C24.788 12.068 24.272 11.816 23.696 11.624C23.12 11.432 22.508 11.276 21.86 11.156C21.236 11.036 20.612 10.976 19.988 10.976C19.22 10.952 18.488 10.964 17.792 11.012C17.096 11.06 16.4 11.144 15.704 11.264C14.84 11.672 13.916 12.032 12.932 12.344C11.948 12.632 10.928 12.872 9.872 13.064C8.84 13.232 7.784 13.34 6.704 13.388C5.648 13.436 4.604 13.424 3.572 13.352C2.588 13.28 1.868 12.968 1.412 12.416C0.98 11.84 0.836 11.096 0.98 10.184C1.1 9.464 1.436 8.96 1.988 8.672C2.54 8.384 3.236 8.276 4.076 8.348C5.156 8.444 6.2 8.468 7.208 8.42C8.24 8.372 9.176 8.264 10.016 8.096C10.88 7.904 11.636 7.652 12.284 7.34C12.956 7.004 13.484 6.62 13.868 6.188H4.436C3.428 6.188 2.696 5.972 2.24 5.54C1.808 5.084 1.592 4.508 1.592 3.812C1.592 3.116 1.808 2.552 2.24 2.12C2.672 1.664 3.404 1.436 4.436 1.436H29.564ZM13.544 14.684C13.592 13.652 13.964 12.944 14.66 12.56C15.356 12.152 16.184 11.948 17.144 11.948C17.6 11.948 18.032 11.996 18.44 12.092C18.872 12.188 19.244 12.344 19.556 12.56C19.892 12.776 20.156 13.064 20.348 13.424C20.564 13.76 20.684 14.18 20.708 14.684H31.256C32.216 14.684 32.888 14.924 33.272 15.404C33.656 15.884 33.848 16.436 33.848 17.06C33.848 17.708 33.644 18.26 33.236 18.716C32.852 19.172 32.192 19.4 31.256 19.4H2.744C1.808 19.4 1.136 19.172 0.728 18.716C0.344 18.26 0.152 17.708 0.152 17.06C0.152 16.436 0.344 15.884 0.728 15.404C1.112 14.924 1.784 14.684 2.744 14.684H13.544ZM36.944 9.608C36.944 8.144 37.184 6.896 37.664 5.864C38.168 4.832 38.864 3.992 39.752 3.344C40.64 2.672 41.696 2.192 42.92 1.904C44.168 1.592 45.536 1.436 47.024 1.436C49.616 1.436 51.776 1.916 53.504 2.876C55.232 3.812 56.312 5.336 56.744 7.448H61.712V4.424C61.712 3.272 62.072 2.408 62.792 1.832C63.512 1.232 64.34 0.931999 65.276 0.931999C65.732 0.931999 66.176 1.016 66.608 1.184C67.04 1.328 67.424 1.544 67.76 1.832C68.096 2.12 68.36 2.48 68.552 2.912C68.768 3.344 68.876 3.848 68.876 4.424V19.184H61.712V13.064H56.708C56.228 15.128 55.124 16.616 53.396 17.528C51.692 18.44 49.568 18.896 47.024 18.896C45.512 18.896 44.132 18.752 42.884 18.464C41.636 18.152 40.568 17.672 39.68 17.024C38.816 16.352 38.144 15.5 37.664 14.468C37.184 13.436 36.944 12.188 36.944 10.724V9.608ZM43.712 34.736C42.704 34.736 41.864 34.64 41.192 34.448C40.544 34.256 40.028 33.956 39.644 33.548C39.26 33.14 38.984 32.6 38.816 31.928C38.672 31.256 38.6 30.44 38.6 29.48V23.756C38.6 22.532 38.948 21.656 39.644 21.128C40.364 20.576 41.228 20.3 42.236 20.3C43.148 20.3 43.928 20.528 44.576 20.984C45.248 21.44 45.644 22.172 45.764 23.18H61.892C62.012 22.172 62.408 21.44 63.08 20.984C63.752 20.528 64.556 20.3 65.492 20.3C66.5 20.3 67.34 20.576 68.012 21.128C68.708 21.656 69.056 22.532 69.056 23.756V34.736H43.712ZM43.964 11.084C43.964 11.996 44.24 12.68 44.792 13.136C45.368 13.568 46.112 13.784 47.024 13.784C47.936 13.784 48.668 13.568 49.22 13.136C49.796 12.68 50.084 11.996 50.084 11.084V9.248C50.084 8.336 49.796 7.664 49.22 7.232C48.668 6.776 47.936 6.548 47.024 6.548C46.112 6.548 45.368 6.776 44.792 7.232C44.24 7.664 43.964 8.336 43.964 9.248V11.084ZM61.856 29.948V27.788H45.8V29.048C45.8 29.456 45.86 29.708 45.98 29.804C46.1 29.9 46.364 29.948 46.772 29.948H61.856ZM75.32 27.32C76.736 27.152 78.044 26.852 79.244 26.42C80.468 25.988 81.512 25.328 82.376 24.44C83.264 23.552 83.96 22.388 84.464 20.948C84.968 19.484 85.22 17.648 85.22 15.44V9.428C85.22 9.164 85.136 8.948 84.968 8.78C84.824 8.612 84.608 8.528 84.32 8.528H76.112C75.56 8.528 75.092 8.432 74.708 8.24C74.348 8.048 74.036 7.808 73.772 7.52C73.532 7.208 73.352 6.872 73.232 6.512C73.136 6.128 73.088 5.756 73.088 5.396C73.088 5.036 73.136 4.676 73.232 4.316C73.352 3.932 73.532 3.596 73.772 3.308C74.012 3.02 74.324 2.78 74.708 2.588C75.092 2.396 75.56 2.3 76.112 2.3H86.696C88.736 2.3 90.188 2.756 91.052 3.668C91.916 4.58 92.348 5.876 92.348 7.556V15.476C92.348 18.668 91.94 21.368 91.124 23.576C90.308 25.784 89.168 27.596 87.704 29.012C86.264 30.404 84.548 31.436 82.556 32.108C80.588 32.78 78.44 33.176 76.112 33.296C75.68 33.32 75.248 33.272 74.816 33.152C74.408 33.032 74.036 32.84 73.7 32.576C73.388 32.312 73.136 31.988 72.944 31.604C72.752 31.196 72.656 30.728 72.656 30.2C72.656 29.432 72.872 28.796 73.304 28.292C73.736 27.764 74.408 27.44 75.32 27.32ZM96.704 4.424C96.704 3.272 97.064 2.408 97.784 1.832C98.504 1.232 99.332 0.931999 100.268 0.931999C100.724 0.931999 101.168 1.016 101.6 1.184C102.032 1.328 102.404 1.544 102.716 1.832C103.052 2.12 103.316 2.48 103.508 2.912C103.724 3.344 103.832 3.848 103.832 4.424V13.532H105.02C105.572 13.532 106.028 13.628 106.388 13.82C106.748 14.012 107.036 14.264 107.252 14.576C107.468 14.864 107.624 15.2 107.72 15.584C107.816 15.944 107.864 16.304 107.864 16.664C107.864 17.024 107.816 17.396 107.72 17.78C107.624 18.14 107.468 18.476 107.252 18.788C107.036 19.076 106.736 19.316 106.352 19.508C105.992 19.7 105.548 19.796 105.02 19.796H103.832V34.736H96.704V4.424ZM114.776 12.452C112.904 12.452 111.572 12.092 110.78 11.372C110.012 10.628 109.628 9.332 109.628 7.484V4.82C109.628 4.22 109.724 3.692 109.916 3.236C110.132 2.78 110.408 2.408 110.744 2.12C111.08 1.808 111.464 1.58 111.896 1.436C112.352 1.292 112.832 1.22 113.336 1.22C114.32 1.22 115.172 1.52 115.892 2.12C116.612 2.72 116.972 3.62 116.972 4.82V6.08C116.972 6.464 117.032 6.704 117.152 6.8C117.272 6.896 117.536 6.944 117.944 6.944H137.492C138.596 6.944 139.376 7.232 139.832 7.808C140.288 8.36 140.516 8.996 140.516 9.716C140.516 10.46 140.276 11.108 139.796 11.66C139.34 12.188 138.572 12.452 137.492 12.452H114.776ZM138.824 14.288C139.928 14.288 140.708 14.588 141.164 15.188C141.62 15.764 141.848 16.412 141.848 17.132C141.848 17.876 141.608 18.536 141.128 19.112C140.672 19.688 139.904 19.976 138.824 19.976H111.176C110.096 19.976 109.316 19.688 108.836 19.112C108.38 18.536 108.152 17.876 108.152 17.132C108.152 16.412 108.38 15.764 108.836 15.188C109.292 14.588 110.072 14.288 111.176 14.288H138.824ZM116.504 34.844C114.008 34.844 112.16 34.244 110.96 33.044C109.76 31.868 109.16 30.308 109.16 28.364C109.16 27.404 109.304 26.528 109.592 25.736C109.904 24.92 110.36 24.224 110.96 23.648C111.584 23.072 112.352 22.628 113.264 22.316C114.176 21.98 115.256 21.812 116.504 21.812H133.496C134.744 21.812 135.824 21.98 136.736 22.316C137.648 22.628 138.404 23.072 139.004 23.648C139.628 24.224 140.084 24.92 140.372 25.736C140.684 26.528 140.84 27.404 140.84 28.364C140.84 30.308 140.24 31.868 139.04 33.044C137.84 34.244 135.992 34.844 133.496 34.844H116.504ZM131.696 29.696C132.416 29.696 132.896 29.576 133.136 29.336C133.4 29.096 133.532 28.772 133.532 28.364C133.532 27.956 133.4 27.644 133.136 27.428C132.896 27.212 132.416 27.104 131.696 27.104H118.304C117.584 27.104 117.092 27.212 116.828 27.428C116.588 27.644 116.468 27.956 116.468 28.364C116.468 28.772 116.588 29.096 116.828 29.336C117.092 29.576 117.584 29.696 118.304 29.696H131.696ZM149.84 29.12C149.84 27.992 150.176 27.104 150.848 26.456C151.52 25.808 152.468 25.484 153.692 25.484C154.916 25.484 155.864 25.82 156.536 26.492C157.208 27.14 157.544 28.016 157.544 29.12C157.544 30.224 157.208 31.112 156.536 31.784C155.864 32.432 154.916 32.756 153.692 32.756C152.468 32.756 151.52 32.432 150.848 31.784C150.176 31.136 149.84 30.248 149.84 29.12ZM150.056 23.792V21.596C150.056 20.204 150.212 19.064 150.524 18.176C150.836 17.288 151.496 16.544 152.504 15.944C153.296 15.464 154.004 15.032 154.628 14.648C155.252 14.264 155.756 13.904 156.14 13.568C156.716 13.04 157.1 12.56 157.292 12.128C157.484 11.672 157.58 11.132 157.58 10.508C157.58 9.668 157.292 9.008 156.716 8.528C156.14 8.048 155.444 7.808 154.628 7.808C153.788 7.808 153.032 8.012 152.36 8.42C151.712 8.804 151.28 9.368 151.064 10.112C150.8 10.976 150.32 11.636 149.624 12.092C148.928 12.548 148.076 12.74 147.068 12.668C146.66 12.644 146.264 12.56 145.88 12.416C145.496 12.248 145.16 12.02 144.872 11.732C144.608 11.444 144.392 11.096 144.224 10.688C144.056 10.256 143.984 9.764 144.008 9.212C144.032 8.108 144.332 7.088 144.908 6.152C145.484 5.192 146.252 4.364 147.212 3.668C148.172 2.972 149.288 2.432 150.56 2.048C151.832 1.64 153.188 1.436 154.628 1.436C156.116 1.436 157.484 1.628 158.732 2.012C160.004 2.372 161.096 2.924 162.008 3.668C162.92 4.412 163.628 5.36 164.132 6.512C164.66 7.64 164.924 8.972 164.924 10.508C164.924 11.732 164.78 12.788 164.492 13.676C164.204 14.564 163.736 15.392 163.088 16.16C162.536 16.784 161.852 17.408 161.036 18.032C160.244 18.656 159.404 19.256 158.516 19.832C158.012 20.168 157.688 20.528 157.544 20.912C157.4 21.272 157.328 21.692 157.328 22.172V23.792H150.056Z" fill="current"/>
</svg>
